<svg width="44" height="44" viewBox="0 0 44 44" fill="none" xmlns="http://www.w3.org/2000/svg">
<path d="M34.8333 31.1665V34.8332H12.8333V31.1665C12.8333 31.1665 12.8333 23.8332 23.8333 23.8332C34.8333 23.8332 34.8333 31.1665 34.8333 31.1665ZM29.3333 14.6665C29.3333 13.5787 29.0108 12.5153 28.4064 11.6109C27.8021 10.7064 26.9431 10.0015 25.9381 9.58517C24.9331 9.16889 23.8272 9.05997 22.7603 9.27219C21.6934 9.48441 20.7134 10.0082 19.9442 10.7774C19.1751 11.5466 18.6512 12.5266 18.439 13.5935C18.2268 14.6604 18.3357 15.7663 18.752 16.7713C19.1683 17.7763 19.8732 18.6352 20.7777 19.2396C21.6822 19.8439 22.7455 20.1665 23.8333 20.1665C25.292 20.1665 26.691 19.587 27.7224 18.5556C28.7539 17.5241 29.3333 16.1252 29.3333 14.6665ZM35.2 23.9432C36.2022 24.8677 37.0101 25.9826 37.5767 27.2228C38.1433 28.463 38.4572 29.8037 38.5 31.1665V34.8332H44V31.1665C44 31.1665 44 24.8415 35.2 23.9432ZM33 9.16651C32.4461 9.16654 31.8955 9.25314 31.3683 9.42317C32.4409 10.9613 33.016 12.7913 33.016 14.6665C33.016 16.5417 32.4409 18.3717 31.3683 19.9098C31.8955 20.0799 32.4461 20.1665 33 20.1665C34.4587 20.1665 35.8576 19.587 36.8891 18.5556C37.9205 17.5241 38.5 16.1252 38.5 14.6665C38.5 13.2078 37.9205 11.8089 36.8891 10.7774C35.8576 9.74597 34.4587 9.16651 33 9.16651ZM14.6667 18.3332H9.16667V12.8332H5.5V18.3332H0V21.9998H5.5V27.4998H9.16667V21.9998H14.6667V18.3332Z" fill="white"/>
</svg>
