<svg width="48" height="54" viewBox="0 0 48 54" fill="none" xmlns="http://www.w3.org/2000/svg">
<path fill-rule="evenodd" clip-rule="evenodd" d="M9.33464 37.3332H34.668C39.6973 37.3332 42.2093 37.3332 43.772 35.7705C45.3346 34.2078 45.3346 31.6958 45.3346 26.6665V13.3332C45.3346 8.30384 45.3346 5.79184 43.772 4.22917C42.2093 2.6665 39.6973 2.6665 34.668 2.6665H13.3346C8.3053 2.6665 5.7933 2.6665 4.23064 4.22917C2.66797 5.79184 2.66797 8.30384 2.66797 13.3332V43.9998C2.66797 42.2317 3.37035 40.536 4.62059 39.2858C5.87083 38.0355 7.56653 37.3332 9.33464 37.3332ZM16.0013 10.6665C14.5868 10.6665 13.2303 11.2284 12.2301 12.2286C11.2299 13.2288 10.668 14.5854 10.668 15.9998C10.668 17.4143 11.2299 18.7709 12.2301 19.7711C13.2303 20.7713 14.5868 21.3332 16.0013 21.3332H32.0013C33.4158 21.3332 34.7723 20.7713 35.7725 19.7711C36.7727 18.7709 37.3346 17.4143 37.3346 15.9998C37.3346 14.5854 36.7727 13.2288 35.7725 12.2286C34.7723 11.2284 33.4158 10.6665 32.0013 10.6665H16.0013Z" fill="#F9B530"/>
<path d="M34.6667 34.6667H9.33334V40H34.6667V34.6667ZM41.8853 33.8853C41.6827 34.088 41.32 34.3387 40.1627 34.496C38.9307 34.6613 37.256 34.6667 34.6667 34.6667V40C37.1067 40 39.2027 40.0053 40.8747 39.7813C42.6213 39.5467 44.2987 39.016 45.656 37.656L41.8853 33.8853ZM42.6667 26.6667C42.6667 29.256 42.6613 30.9307 42.496 32.1627C42.3387 33.32 42.088 33.6827 41.8853 33.8853L45.656 37.656C47.016 36.296 47.5467 34.6213 47.7813 32.8747C48.0053 31.2 48 29.1067 48 26.6667H42.6667ZM42.6667 13.3333V26.6667H48V13.3333H42.6667ZM41.8853 6.11468C42.088 6.31735 42.3387 6.68001 42.496 7.83734C42.6613 9.06668 42.6667 10.744 42.6667 13.3333H48C48 10.8933 48.0053 8.79734 47.7813 7.12534C47.5467 5.37868 47.016 3.70134 45.656 2.34401L41.8853 6.11468ZM34.6667 5.33334C37.256 5.33334 38.9307 5.33868 40.1627 5.50401C41.32 5.66134 41.6827 5.91201 41.8853 6.11468L45.656 2.34401C44.296 0.984011 42.6213 0.453344 40.8747 0.218678C39.2 -0.00532226 37.1067 1.1019e-05 34.6667 1.1019e-05V5.33334ZM13.3333 5.33334H34.6667V1.1019e-05H13.3333V5.33334ZM6.11468 6.11468C6.31735 5.91201 6.68001 5.66134 7.83734 5.50401C9.06668 5.33868 10.744 5.33334 13.3333 5.33334V1.1019e-05C10.8933 1.1019e-05 8.79734 -0.00532226 7.12534 0.218678C5.37868 0.453344 3.70134 0.984011 2.34401 2.34401L6.11468 6.11468ZM5.33334 13.3333C5.33334 10.744 5.33868 9.06934 5.50401 7.83734C5.66134 6.68001 5.91201 6.31735 6.11468 6.11468L2.34401 2.34401C0.984011 3.70401 0.453344 5.37868 0.218678 7.12534C-0.00532226 8.80001 1.1019e-05 10.8933 1.1019e-05 13.3333H5.33334ZM5.33334 44V13.3333H1.1019e-05V44H5.33334ZM9.33334 34.6667C6.85799 34.6667 4.48402 35.65 2.73368 37.4003C0.983342 39.1507 1.1019e-05 41.5247 1.1019e-05 44H5.33334C5.33334 42.9391 5.75477 41.9217 6.50492 41.1716C7.25506 40.4214 8.27248 40 9.33334 40V34.6667ZM13.3333 16C13.3333 15.2928 13.6143 14.6145 14.1144 14.1144C14.6145 13.6143 15.2928 13.3333 16 13.3333V8.00001C13.8783 8.00001 11.8434 8.84287 10.3432 10.3432C8.84287 11.8434 8.00001 13.8783 8.00001 16H13.3333ZM16 18.6667C15.2928 18.6667 14.6145 18.3857 14.1144 17.8856C13.6143 17.3855 13.3333 16.7073 13.3333 16H8.00001C8.00001 18.1217 8.84287 20.1566 10.3432 21.6569C11.8434 23.1572 13.8783 24 16 24V18.6667ZM32 18.6667H16V24H32V18.6667ZM34.6667 16C34.6667 16.7073 34.3857 17.3855 33.8856 17.8856C33.3855 18.3857 32.7073 18.6667 32 18.6667V24C34.1217 24 36.1566 23.1572 37.6569 21.6569C39.1572 20.1566 40 18.1217 40 16H34.6667ZM32 13.3333C32.7073 13.3333 33.3855 13.6143 33.8856 14.1144C34.3857 14.6145 34.6667 15.2928 34.6667 16H40C40 13.8783 39.1572 11.8434 37.6569 10.3432C36.1566 8.84287 34.1217 8.00001 32 8.00001V13.3333ZM16 13.3333H32V8.00001H16V13.3333ZM21.3333 48H9.33334V53.3333H21.3333V48ZM1.1019e-05 44C1.1019e-05 46.4754 0.983342 48.8493 2.73368 50.5997C4.48402 52.35 6.85799 53.3333 9.33334 53.3333V48C8.27248 48 7.25506 47.5786 6.50492 46.8284C5.75477 46.0783 5.33334 45.0609 5.33334 44H1.1019e-05Z" fill="#F9B530"/>
<path d="M45.3346 50.6665H18.668" stroke="#F9B530" stroke-width="5.33333" stroke-linecap="round"/>
</svg>
