<svg width="43" height="43" viewBox="0 0 43 43" fill="none" xmlns="http://www.w3.org/2000/svg">
<path d="M21.3333 30.8667C20.9778 30.8667 20.6444 30.8116 20.3333 30.7013C20.0222 30.5911 19.7333 30.4018 19.4667 30.1333L9.86667 20.5333C9.33333 20 9.07733 19.3778 9.09867 18.6667C9.12 17.9556 9.376 17.3333 9.86667 16.8C10.4 16.2667 11.0338 15.9893 11.768 15.968C12.5022 15.9467 13.1351 16.2018 13.6667 16.7333L18.6667 21.7333V2.66668C18.6667 1.91112 18.9227 1.27823 19.4347 0.76801C19.9467 0.257787 20.5796 0.00178697 21.3333 9.19539e-06C22.0871 -0.00176858 22.7209 0.254232 23.2347 0.76801C23.7484 1.28179 24.0036 1.91468 24 2.66668V21.7333L29 16.7333C29.5333 16.2 30.1671 15.944 30.9013 15.9653C31.6356 15.9867 32.2684 16.2649 32.8 16.8C33.2889 17.3333 33.5449 17.9556 33.568 18.6667C33.5911 19.3778 33.3351 20 32.8 20.5333L23.2 30.1333C22.9333 30.4 22.6444 30.5893 22.3333 30.7013C22.0222 30.8133 21.6889 30.8685 21.3333 30.8667ZM5.33333 42.6667C3.86667 42.6667 2.61156 42.1449 1.568 41.1013C0.524444 40.0578 0.00177778 38.8018 0 37.3333V32C0 31.2445 0.256 30.6116 0.768 30.1013C1.28 29.5911 1.91289 29.3351 2.66667 29.3333C3.42044 29.3316 4.05422 29.5876 4.568 30.1013C5.08178 30.6151 5.33689 31.248 5.33333 32V37.3333H37.3333V32C37.3333 31.2445 37.5893 30.6116 38.1013 30.1013C38.6133 29.5911 39.2462 29.3351 40 29.3333C40.7538 29.3316 41.3876 29.5876 41.9013 30.1013C42.4151 30.6151 42.6702 31.248 42.6667 32V37.3333C42.6667 38.8 42.1449 40.056 41.1013 41.1013C40.0578 42.1467 38.8018 42.6685 37.3333 42.6667H5.33333Z" fill="#F9B530"/>
</svg>
