<svg width="31" height="36" viewBox="0 0 31 36" fill="none" xmlns="http://www.w3.org/2000/svg">
<path d="M15.375 10.25C16.7342 10.25 18.0378 9.71005 18.9989 8.74892C19.96 7.7878 20.5 6.48423 20.5 5.125C20.5 3.76577 19.96 2.4622 18.9989 1.50108C18.0378 0.539954 16.7342 0 15.375 0C14.0158 0 12.7122 0.539954 11.7511 1.50108C10.79 2.4622 10.25 3.76577 10.25 5.125C10.25 6.48423 10.79 7.7878 11.7511 8.74892C12.7122 9.71005 14.0158 10.25 15.375 10.25ZM15.375 16.2975C11.3433 12.5563 5.97917 10.25 0 10.25V29.0417C5.97917 29.0417 11.3433 31.3479 15.375 35.0892C19.4067 31.3479 24.7708 29.0417 30.75 29.0417V10.25C24.7708 10.25 19.4067 12.5563 15.375 16.2975Z" fill="white"/>
</svg>
