<svg width="101" height="101" viewBox="0 0 101 101" fill="none" xmlns="http://www.w3.org/2000/svg">
<g clip-path="url(#clip0_2359_722)">
<path d="M0 50.5C0 37.1066 5.32052 24.2617 14.7911 14.7911C24.2617 5.32052 37.1066 0 50.5 0C63.8934 0 76.7383 5.32052 86.2089 14.7911C95.6795 24.2617 101 37.1066 101 50.5C101 63.8934 95.6795 76.7383 86.2089 86.2089C76.7383 95.6795 63.8934 101 50.5 101C37.1066 101 24.2617 95.6795 14.7911 86.2089C5.32052 76.7383 0 63.8934 0 50.5ZM31.5625 41.0312H44.1875C44.1875 40.1942 44.52 39.3914 45.1119 38.7994C45.7039 38.2075 46.5067 37.875 47.3438 37.875H51.4216C51.9651 37.8753 52.4926 38.0591 52.9185 38.3968C53.3444 38.7344 53.6438 39.206 53.768 39.7352C53.8923 40.2643 53.8341 40.8199 53.603 41.3118C53.3719 41.8037 52.9813 42.2031 52.4948 42.4453L44.1875 46.5989V56.8125H56.8125V54.4011L58.1444 53.732C61.1721 52.2163 63.5996 49.7231 65.0339 46.656C66.4682 43.5889 66.8254 40.1275 66.0476 36.8321C65.2698 33.5368 63.4025 30.6004 60.7481 28.4984C58.0937 26.3965 54.8075 25.2519 51.4216 25.25H47.3438C43.1583 25.25 39.1443 26.9127 36.1847 29.8722C33.2252 32.8318 31.5625 36.8458 31.5625 41.0312ZM50.5 75.75C52.1742 75.75 53.7798 75.0849 54.9636 73.9011C56.1474 72.7173 56.8125 71.1117 56.8125 69.4375C56.8125 67.7633 56.1474 66.1577 54.9636 64.9739C53.7798 63.7901 52.1742 63.125 50.5 63.125C48.8258 63.125 47.2202 63.7901 46.0364 64.9739C44.8526 66.1577 44.1875 67.7633 44.1875 69.4375C44.1875 71.1117 44.8526 72.7173 46.0364 73.9011C47.2202 75.0849 48.8258 75.75 50.5 75.75Z" fill="#444444"/>
</g>
<defs>
<clipPath id="clip0_2359_722">
<rect width="101" height="101" fill="white"/>
</clipPath>
</defs>
</svg>
