<svg width="43" height="53" viewBox="0 0 43 53" fill="none" xmlns="http://www.w3.org/2000/svg">
<path d="M41.7641 4.64067C41.5317 4.48259 41.2647 4.38249 40.9857 4.34873C40.7066 4.31498 40.4235 4.34856 40.1601 4.44667L14.5761 14.2087C13.4621 14.6327 12.0701 14.8387 10.6401 14.8387C8.6461 14.8427 6.5801 14.4347 5.1461 13.8787C4.7106 13.7204 4.29243 13.518 3.8981 13.2747C4.0101 13.2253 4.13943 13.1753 4.2861 13.1247L27.5521 4.24867L31.0181 5.55667V1.73267C31.0181 1.45214 30.9502 1.17577 30.8203 0.927124C30.6904 0.678478 30.5023 0.464925 30.2721 0.304668C30.0397 0.14659 29.7727 0.0464859 29.4937 0.0127337C29.2146 -0.0210185 28.9315 0.0125633 28.6681 0.110668L3.0861 9.86867C2.2941 10.1547 1.6201 10.4947 1.0461 10.9987C0.478097 11.4867 -0.00790261 12.2887 9.73859e-05 13.1787C9.73859e-05 13.2047 0.00809681 13.2427 0.00809681 13.2427V47.6147L0.00209724 47.6547C0.00209724 47.6687 0.00809681 47.6747 0.00809681 47.6887V47.7227H0.0120965C0.0680965 48.9227 0.752097 49.6887 1.4121 50.2327C3.4781 51.8387 6.9481 52.7367 10.6381 52.7807C12.3881 52.7807 14.1621 52.5487 15.8061 51.9267L41.3981 42.1627C41.7274 42.0392 42.011 41.8176 42.2106 41.528C42.4101 41.2383 42.516 40.8944 42.5141 40.5427V6.07267C42.5139 5.79196 42.4457 5.51548 42.3154 5.26682C42.1852 5.01816 41.9967 4.8047 41.7661 4.64467L41.7641 4.64067ZM1.6001 18.8607C1.67515 19.0342 1.72239 19.2184 1.7401 19.4067L1.7461 19.5127C1.7781 20.0407 2.0061 20.3247 2.4721 20.7327C4.0381 21.9867 7.2361 22.8927 10.6381 22.9207C11.9448 22.9312 13.2462 22.7534 14.5021 22.3927V25.9727C13.2081 26.2607 11.9021 26.3867 10.6181 26.3867C7.2701 26.3347 4.0861 25.6807 1.5981 24.2807L1.6001 18.8607ZM10.6201 44.5647C7.2701 44.5087 4.0861 43.8567 1.6001 42.4547V37.0287C1.6794 37.2028 1.72681 37.3898 1.7401 37.5807L1.7461 37.6867C1.7821 38.2187 2.0061 38.5007 2.4741 38.9107C4.0381 40.1607 7.2341 41.0707 10.6381 41.0907C11.9781 41.0907 13.2921 40.9307 14.5021 40.5707V44.1467C13.2257 44.426 11.9227 44.5655 10.6161 44.5627L10.6201 44.5647Z" fill="#F9B530"/>
</svg>
