<svg width="30" height="30" viewBox="0 0 30 30" fill="none" xmlns="http://www.w3.org/2000/svg">
<path d="M26.975 29.25L16.7375 19.0125C15.925 19.6625 14.9906 20.1771 13.9344 20.5562C12.8781 20.9354 11.7542 21.125 10.5625 21.125C7.61042 21.125 5.11225 20.1023 3.068 18.057C1.02375 16.0117 0.00108419 13.5135 8.59788e-07 10.5625C-0.00108247 7.6115 1.02158 5.11333 3.068 3.068C5.11442 1.02267 7.61258 0 10.5625 0C13.5124 0 16.0111 1.02267 18.0586 3.068C20.1061 5.11333 21.1283 7.6115 21.125 10.5625C21.125 11.7542 20.9354 12.8781 20.5563 13.9344C20.1771 14.9906 19.6625 15.925 19.0125 16.7375L29.25 26.975L26.975 29.25ZM10.5625 17.875C12.5938 17.875 14.3206 17.1643 15.743 15.743C17.1654 14.3217 17.8761 12.5948 17.875 10.5625C17.8739 8.53017 17.1633 6.80388 15.743 5.38363C14.3228 3.96338 12.5959 3.25217 10.5625 3.25C8.52908 3.24783 6.80279 3.95904 5.38363 5.38363C3.96446 6.80821 3.25325 8.5345 3.25 10.5625C3.24675 12.5905 3.95796 14.3173 5.38363 15.743C6.80929 17.1687 8.53558 17.8793 10.5625 17.875Z" fill="#444444"/>
</svg>
