<svg width="35" height="28" viewBox="0 0 35 28" fill="none" xmlns="http://www.w3.org/2000/svg">
<path d="M33.3867 20.4148C33.5289 19.6437 33.5289 18.8563 33.3867 18.0852L34.7977 17.2703C34.9617 17.1773 35.0328 16.9859 34.9781 16.8055C34.6117 15.6242 33.9828 14.5523 33.1625 13.6664C33.0367 13.5297 32.8344 13.4969 32.6703 13.5898L31.2594 14.4047C30.6633 13.8961 29.9797 13.5023 29.2414 13.2398V11.6102C29.2414 11.4242 29.1102 11.2602 28.9297 11.2219C27.7102 10.9484 26.4688 10.9594 25.3094 11.2219C25.1289 11.2602 24.9977 11.4242 24.9977 11.6102V13.2398C24.2594 13.5023 23.5758 13.8961 22.9797 14.4047L21.5688 13.5898C21.4102 13.4969 21.2023 13.5297 21.0766 13.6664C20.2563 14.5523 19.6273 15.6242 19.2609 16.8055C19.2063 16.9859 19.2828 17.1773 19.4414 17.2703L20.8523 18.0852C20.7102 18.8563 20.7102 19.6437 20.8523 20.4148L19.4414 21.2297C19.2773 21.3227 19.2063 21.5141 19.2609 21.6945C19.6273 22.8758 20.2563 23.9422 21.0766 24.8336C21.2023 24.9703 21.4047 25.0031 21.5688 24.9102L22.9797 24.0953C23.5758 24.6039 24.2594 24.9977 24.9977 25.2602V26.8898C24.9977 27.0758 25.1289 27.2398 25.3094 27.2781C26.5289 27.5516 27.7703 27.5406 28.9297 27.2781C29.1102 27.2398 29.2414 27.0758 29.2414 26.8898V25.2602C29.9797 24.9977 30.6633 24.6039 31.2594 24.0953L32.6703 24.9102C32.8289 25.0031 33.0367 24.9703 33.1625 24.8336C33.9828 23.9477 34.6117 22.8758 34.9781 21.6945C35.0328 21.5141 34.9562 21.3227 34.7977 21.2297L33.3867 20.4148ZM27.125 21.9023C25.6594 21.9023 24.4727 20.7102 24.4727 19.25C24.4727 17.7898 25.6648 16.5977 27.125 16.5977C28.5852 16.5977 29.7773 17.7898 29.7773 19.25C29.7773 20.7102 28.5906 21.9023 27.125 21.9023ZM12.25 14C16.1164 14 19.25 10.8664 19.25 7C19.25 3.13359 16.1164 0 12.25 0C8.38359 0 5.25 3.13359 5.25 7C5.25 10.8664 8.38359 14 12.25 14ZM23.2531 26.3867C23.1273 26.3211 23.0016 26.2445 22.8813 26.1734L22.4492 26.425C22.1211 26.6109 21.7492 26.7148 21.3773 26.7148C20.7812 26.7148 20.207 26.4633 19.7969 26.0258C18.7961 24.943 18.0305 23.625 17.5984 22.2195C17.2977 21.2516 17.7023 20.2289 18.5773 19.7203L19.0094 19.4688C19.0039 19.3266 19.0039 19.1844 19.0094 19.0422L18.5773 18.7906C17.7023 18.2875 17.2977 17.2594 17.5984 16.2914C17.6477 16.1328 17.7188 15.9742 17.7734 15.8156C17.5656 15.7992 17.3633 15.75 17.15 15.75H16.2367C15.0227 16.3078 13.6719 16.625 12.25 16.625C10.8281 16.625 9.48281 16.3078 8.26328 15.75H7.35C3.29219 15.75 0 19.0422 0 23.1V25.375C0 26.8242 1.17578 28 2.625 28H21.875C22.4273 28 22.9414 27.825 23.3625 27.5352C23.2969 27.3273 23.2531 27.1141 23.2531 26.8898V26.3867Z" fill="white"/>
</svg>
