<svg width="63" height="37" viewBox="0 0 63 37" fill="none" xmlns="http://www.w3.org/2000/svg">
<path d="M31.31 0L30.684 0.19L5.684 8.566L0 10.44L3.31 11.5V29C2.116 29.694 1.31 30.96 1.31 32.44C1.31 33.5009 1.73143 34.5183 2.48157 35.2684C3.23172 36.0186 4.24913 36.44 5.31 36.44C6.37087 36.44 7.38828 36.0186 8.13843 35.2684C8.88857 34.5183 9.31 33.5009 9.31 32.44C9.31 30.96 8.504 29.694 7.31 29V12.88L11.31 14.19V24.44C11.31 26.08 12.31 27.44 13.498 28.38C14.686 29.314 16.162 29.974 17.934 30.566C21.482 31.746 26.158 32.44 31.31 32.44C36.462 32.44 41.138 31.748 44.686 30.564C46.458 29.974 47.934 29.314 49.122 28.378C50.31 27.44 51.31 26.08 51.31 24.44V14.19L56.936 12.314L62.62 10.44L56.934 8.564L31.934 0.19L31.31 0ZM31.31 4.19L50.06 10.44L31.31 16.69L12.56 10.44L31.31 4.19ZM15.31 15.566L30.686 20.69L31.31 20.878L31.936 20.688L47.31 15.564V24.44C47.31 24.46 47.318 24.692 46.684 25.19C46.052 25.69 44.918 26.32 43.434 26.816C40.47 27.802 36.1 28.44 31.31 28.44C26.52 28.44 22.15 27.804 19.184 26.814C17.704 26.32 16.568 25.688 15.936 25.19C15.3 24.69 15.31 24.46 15.31 24.44V15.566Z" fill="#FACC15"/>
</svg>
