<svg width="44" height="45" viewBox="0 0 44 45" fill="none" xmlns="http://www.w3.org/2000/svg">
<path fill-rule="evenodd" clip-rule="evenodd" d="M6.875 2.93896C6.51033 2.93896 6.16059 3.08712 5.90273 3.35085C5.64487 3.61457 5.5 3.97225 5.5 4.34521V35.0296C5.5 35.4026 5.64487 35.7602 5.90273 36.024C6.16059 36.2877 6.51033 36.4358 6.875 36.4358H31.625C31.9897 36.4358 32.3394 36.2877 32.5973 36.024C32.8551 35.7602 33 35.4026 33 35.0296V15.0862C33.0004 14.8973 32.9635 14.7104 32.8917 14.5364C32.8199 14.3625 32.7146 14.2051 32.582 14.0737L21.7552 3.34115C21.4992 3.0858 21.1559 2.94255 20.7983 2.94178L6.875 2.93896ZM28.2315 13.6799L22.1732 7.66959V13.6799H28.2315ZM16.5 15.4687H11V12.6562H16.5V15.4687ZM27.5 22.4999H11V19.6874H27.5V22.4999ZM11 29.5312H27.5V26.7187H11V29.5312Z" fill="white"/>
<path d="M35.75 21.0938V39.375H12.375V42.1875H37.125C37.4897 42.1875 37.8394 42.0393 38.0973 41.7756C38.3551 41.5119 38.5 41.1542 38.5 40.7812V21.0938H35.75Z" fill="white"/>
</svg>
